# xmcd CD database file
#
# Track frame offsets:
#	150
#	17648
#	37215
#	51909
#	72770
#	94362
#	107394
#	128523
#	145751
#	161267
#	180517
#	196958
#	217676
#	235377
#	259284
#
# Disc length: 3488 seconds
#
# Revision: 0
# Processed by: cddbd v1.5.2PL0 Copyright (c) Steve Scherf et al.
# Submitted via: CDex 1.70beta2
#
DISCID=c90d9e0f
DTITLE=Eve Selis - Angels and Eagles
DYEAR=2008
DGENRE=Country
TTITLE0=angels and eagles
TTITLE1=cryin' days
TTITLE2=believe in love
TTITLE3=street i grew up on
TTITLE4=goodbye
TTITLE5=that's enough
TTITLE6=touching the eiffel tower
TTITLE7=one day at the time
TTITLE8=the gift
TTITLE9=love you away from me
TTITLE10=1000 kisses
TTITLE11=she
TTITLE12=better days
TTITLE13=welcome to paradise
TTITLE14=reprise
EXTD=YEAR: 2008
EXTT0=
EXTT1=
EXTT2=
EXTT3=
EXTT4=
EXTT5=
EXTT6=
EXTT7=
EXTT8=
EXTT9=
EXTT10=
EXTT11=
EXTT12=
EXTT13=
EXTT14=
PLAYORDER=
